# xmcd CD database file
#
# Track frame offsets:
#	180
#	10832
#	22434
#	34823
#	45625
#	58980
#	71262
#	81812
#	95250
#	107087
#	120143
#	133532
#	146276
#	160386
#	192371
#	203252
#	216168
#
# Disc length: 3045 seconds
#
# Revision: 0
# Processed by: cddbd v1.5.2PL0 Copyright (c) Steve Scherf et al.
# Submitted via: CDex 1.51
#
DISCID=e40be311
DTITLE=Various Artist - Legends Of Blues - CD4
DYEAR=2005
DGENRE=Blues
TTITLE0=Sonny Terry and Brownie McGhee - Baby Let's Have Some Fun
TTITLE1=Joe Williams - Every Day
TTITLE2=John Lee Hooker - Huckle Up Baby
TTITLE3=Jimmy Witherspoon - I'm Just A Lady's Man
TTITLE4=John Lee Hooker - John L's House Rent Boogie
TTITLE5=Ray Charles - Jumpin' In The Mornin
TTITLE6=Big Joe Turner - Jumpin' Tonight (Midnight Rockin')
TTITLE7=Joe Williams - Kansas City Blues
TTITLE8=John Lee Hooker - Let Your Daddy Ride
TTITLE9=Sonny Terry and Brownie McGhee - Lonesome Room
TTITLE10=BB King - Three O'Clock Blues
TTITLE11=BB King - Walkin' And Cryin'
TTITLE12=Oscar Peterson Oscar's Blues
TTITLE13=Milt Jackson and The Modern Jazz Quartet - Ralph's New Blues
TTITLE14=Zoot Sims - Swingin' The Blues
TTITLE15=Dizzy Gillespie - The Bluest Blues
TTITLE16=Joe Williams and Count Basie - It's Raining Again
EXTD=YEAR: 2005
EXTT0=
EXTT1=
EXTT2=
EXTT3=
EXTT4=
EXTT5=
EXTT6=
EXTT7=
EXTT8=
EXTT9=
EXTT10=
EXTT11=
EXTT12=
EXTT13=
EXTT14=
EXTT15=
EXTT16=
PLAYORDER=
